<?xml version="1.0" encoding="UTF-8"?><svg id="a" xmlns="http://www.w3.org/2000/svg" viewBox="0 0 100 100"><defs><style>.b{fill:#0078ff;}.c{fill:#fff;}</style></defs><circle class="b" cx="50" cy="50" r="35.06"/><path class="c" d="M59.81,50c0,5.42-4.39,9.81-9.81,9.81s-9.81-4.39-9.81-9.81c0-.54,.04-1.06,.13-1.57l1.2-3.38c1.71-2.9,4.86-4.86,8.48-4.86,3.9,0,7.26,2.27,8.84,5.56l.67,1.86c.07,.27,.13,.54,.18,.82,.08,.51,.12,1.03,.12,1.57Z"/><path class="c" d="M59.69,48.43h-19.37l1.2-3.38,7.03-19.76c.49-1.37,2.43-1.38,2.92-.01l7.37,20.47,.67,1.86c.07,.27,.13,.54,.18,.82Z"/></svg>