<?xml version="1.0" encoding="UTF-8"?><svg id="a" xmlns="http://www.w3.org/2000/svg" viewBox="0 0 100 100"><defs><style>.b{fill:#0078ff;}</style></defs><path class="b" d="M47.85,85.28c-17.59-1.04-31.96-15.16-33.34-32.73C12.88,31.61,29.45,14.05,50.05,14.05c8.45,0,16.65,3.01,23.08,8.48l-6.48,7.62c-4.62-3.93-10.52-6.1-16.6-6.1-14.36,0-26.01,11.87-25.64,26.31,.35,13.64,11.61,24.78,25.25,24.98,11.79,.17,21.89-7.5,25.04-18.51,.49-1.73,2.22-2.8,4-2.52l2.8,.45c2.11,.34,3.47,2.44,2.9,4.5-4.4,16.02-19.34,27.04-36.55,26.02Z"/><path class="b" d="M80.91,34.48l-4.16-15.58c-.71-2.66-4.04-3.56-5.99-1.61l-11.42,11.42c-1.95,1.95-1.06,5.28,1.61,5.99l15.58,4.16c2.66,.71,5.09-1.72,4.38-4.38Z"/></svg>